<?xml version="1.0" encoding="UTF-8"?><svg id="_レイヤー_2" xmlns="http://www.w3.org/2000/svg" viewBox="0 0 215.9 124.84"><defs><style>.cls-1{stroke-width:0px;}</style></defs><g id="_レイヤー_1-2"><path class="cls-1" d="M117.03,75.54c.43-2.59,2.55-4.57,5.16-4.83l93.65-9.2s1.14-8.25-5.92-13.88c-.92-.73-2.06-1.12-3.23-1.19l-83.88-5.13c-1.71-.1-3.08-1.47-3.17-3.19-.19-3.48-.47-8.79-.56-11.51-.23-7.16-3.97-26.62-11.12-26.62s-10.88,19.46-11.12,26.62c-.09,2.72-.37,8.03-.56,11.51-.09,1.72-1.46,3.08-3.17,3.19l-83.88,5.13c-1.17.07-2.31.46-3.23,1.19C-1.07,53.27.07,61.52.07,61.52l93.65,9.2c2.61.27,4.72,2.24,5.16,4.83l4.15,24.74c.14.86-.3,1.71-1.09,2.09l-13.38,6.4c-2.69,1.29-4.59,3.8-5.09,6.75l-.87,8.47c2.13-1.09,5.12-2.17,7.51-2.24l15.24-.37v3.15c0,.18.14.32.32.32h4.56c.18,0,.32-.14.32-.32v-3.15l15.24.37c2.39.08,5.39,1.15,7.51,2.24l-.87-8.47c-.5-2.94-2.4-5.46-5.09-6.75l-13.38-6.4c-.79-.38-1.23-1.23-1.09-2.09l4.15-24.74Z"/></g></svg>