<?xml version="1.0" encoding="UTF-8"?>
<svg id="Layer_2" data-name="Layer 2" xmlns="http://www.w3.org/2000/svg" viewBox="0 0 16.8 8.57">
  <g id="_レイヤー_1" data-name="レイヤー 1">
    <g>
      <path d="M3.71,6.79H0v-1.51L3.47,0h1.97v5.28h1.09v1.51h-1.09v1.7h-1.73v-1.7ZM3.71,2.35h-.02l-1.88,2.93h1.91v-2.93Z"/>
      <path d="M10.27,2.02l-1.7,1.5-1.02-1.18,2.77-2.34h1.68v8.5h-1.73V2.02Z"/>
      <path d="M14.59,7.46c0-.15.03-.3.08-.43s.13-.25.23-.35.22-.18.35-.23c.14-.06.28-.08.43-.08s.3.03.43.08c.14.06.25.13.35.23.1.1.18.22.23.35s.08.28.08.43-.03.3-.08.43c-.06.14-.13.25-.23.35-.1.1-.22.18-.35.23-.14.06-.28.08-.43.08s-.3-.03-.43-.08c-.14-.06-.25-.13-.35-.23-.1-.1-.18-.22-.23-.35-.06-.14-.08-.28-.08-.43Z"/>
    </g>
  </g>
</svg>