<?xml version="1.0" encoding="UTF-8"?>
<svg id="Layer_2" data-name="Layer 2" xmlns="http://www.w3.org/2000/svg" viewBox="0 0 40.68 8.93">
  <g id="_レイヤー_1" data-name="レイヤー 1">
    <g>
      <path d="M6.01,2.42c-.18-.22-.41-.4-.68-.52-.27-.12-.58-.18-.93-.18s-.68.07-.98.2c-.3.14-.56.33-.78.57-.22.24-.39.53-.52.87s-.19.7-.19,1.09.06.77.19,1.1c.12.33.29.62.51.86.22.24.47.43.76.57s.61.2.94.2c.38,0,.72-.08,1.02-.24s.54-.38.73-.67l1.56,1.16c-.36.5-.82.88-1.37,1.12-.55.24-1.12.36-1.7.36-.66,0-1.28-.1-1.84-.31s-1.04-.51-1.45-.89c-.41-.39-.73-.86-.95-1.41-.23-.55-.34-1.17-.34-1.85s.11-1.3.34-1.85c.23-.55.55-1.02.95-1.41.41-.39.89-.69,1.45-.89.56-.21,1.17-.31,1.84-.31.24,0,.49.02.75.07.26.04.52.11.77.21.25.1.49.22.73.38s.44.36.62.59l-1.44,1.18Z"/>
      <path d="M13.97,7.7c-.29.37-.65.65-1.09.85-.44.2-.9.3-1.37.3-.45,0-.87-.07-1.27-.22-.4-.14-.74-.35-1.03-.62-.29-.27-.52-.59-.69-.97s-.25-.8-.25-1.26.08-.88.25-1.26.4-.7.69-.97c.29-.27.64-.47,1.03-.62.4-.14.82-.22,1.27-.22.42,0,.79.07,1.13.22.34.14.63.35.86.62.24.27.42.59.55.97.13.38.19.8.19,1.26v.56h-4.18c.07.34.23.62.47.82.24.2.54.31.89.31.3,0,.55-.07.75-.2.2-.13.38-.3.53-.51l1.26.92ZM12.44,5.14c0-.3-.09-.56-.3-.78-.21-.22-.48-.32-.8-.32-.2,0-.38.03-.53.1-.15.06-.28.15-.39.25s-.19.22-.25.35-.09.27-.1.41h2.38Z"/>
      <path d="M15.34,2.88h1.73v.79h.02c.06-.11.14-.22.24-.34s.23-.21.37-.3.31-.16.49-.22c.18-.06.38-.08.6-.08.46,0,.82.07,1.1.21.28.14.5.33.65.58.16.25.26.54.32.88.06.34.08.7.08,1.09v3.22h-1.8v-2.86c0-.17,0-.34-.02-.52-.01-.18-.05-.35-.11-.5s-.15-.28-.28-.37-.3-.14-.53-.14-.42.04-.56.13-.25.2-.33.34c-.08.14-.13.3-.15.47s-.04.36-.04.55v2.9h-1.8V2.88Z"/>
      <path d="M26.19,4.32h-1.58v1.94c0,.16,0,.31.02.44s.05.25.11.34c.06.1.14.17.26.22.12.05.27.08.46.08.1,0,.22,0,.38-.03.16-.02.27-.07.35-.14v1.5c-.2.07-.41.12-.62.14-.22.02-.43.04-.64.04-.3,0-.58-.03-.84-.1-.26-.06-.48-.17-.67-.31s-.34-.32-.45-.55c-.11-.22-.16-.5-.16-.82v-2.77h-1.15v-1.44h1.15v-1.73h1.8v1.73h1.58v1.44Z"/>
      <path d="M27.11,2.88h1.8v.94h.02c.19-.36.42-.63.68-.81s.6-.27,1-.27c.1,0,.21,0,.31.01.1,0,.2.02.29.05v1.64c-.13-.04-.25-.07-.38-.09-.12-.02-.25-.03-.39-.03-.34,0-.62.05-.82.14-.2.1-.35.23-.46.4s-.18.38-.21.62c-.03.24-.05.5-.05.79v2.44h-1.8V2.88Z"/>
      <path d="M35.65,7.98h-.02c-.2.31-.47.54-.8.67-.33.14-.68.2-1.05.2-.27,0-.53-.04-.79-.11-.25-.08-.47-.19-.67-.34-.19-.15-.34-.34-.46-.56-.11-.22-.17-.48-.17-.78,0-.34.06-.62.19-.85.12-.23.29-.42.5-.58s.45-.27.73-.35c.27-.08.55-.15.85-.19s.58-.06.88-.07c.29,0,.56-.01.81-.01,0-.32-.11-.57-.34-.76-.23-.19-.5-.28-.81-.28-.3,0-.57.06-.81.19-.24.12-.46.29-.65.51l-.96-.98c.34-.31.73-.55,1.18-.7.45-.16.91-.23,1.39-.23.53,0,.96.07,1.3.2.34.13.61.33.82.58.2.26.35.57.43.94s.12.8.12,1.29v2.96h-1.66v-.73ZM35.21,6.16c-.14,0-.31,0-.51.02-.2.01-.4.05-.59.1-.19.06-.35.14-.48.25-.13.11-.2.27-.2.47,0,.22.09.38.28.48.18.1.38.16.58.16.18,0,.35-.02.51-.07.16-.05.31-.12.44-.2.13-.09.23-.2.31-.34.08-.14.11-.3.11-.48v-.38h-.44Z"/>
      <path d="M38.47,7.68c0-.15.03-.3.08-.43s.13-.25.23-.35.22-.18.35-.23c.14-.06.28-.08.43-.08s.3.03.43.08c.14.06.25.13.35.23.1.1.18.22.23.35s.08.28.08.43-.03.3-.08.43c-.06.14-.13.25-.23.35-.1.1-.22.18-.35.23-.14.06-.28.08-.43.08s-.3-.03-.43-.08c-.14-.06-.25-.13-.35-.23-.1-.1-.18-.22-.23-.35-.06-.14-.08-.28-.08-.43Z"/>
    </g>
  </g>
</svg>