<?xml version="1.0" encoding="UTF-8"?><svg id="_レイヤー_2" xmlns="http://www.w3.org/2000/svg" viewBox="0 0 61.99 8.8"><defs><style>.cls-1{fill:#fff;stroke-width:0px;}</style></defs><g id="_レイヤー_1-2"><path class="cls-1" d="M17.82,5.71h1.69c0,1.92-1.2,3.09-3.12,3.09-2.09,0-3.32-1.31-3.32-3.53v-1.73c0-2.23,1.23-3.53,3.32-3.53,1.95,0,3.1,1.17,3.11,3.16h-1.69c-.02-1.01-.59-1.67-1.45-1.67-1.03,0-1.56.7-1.56,2.04v1.73c0,1.34.54,2.04,1.59,2.04.87,0,1.42-.61,1.44-1.59Z"/><path class="cls-1" d="M26.53,6.81c-.13,1.14-1.28,1.96-2.78,1.96-1.88,0-2.96-1.05-2.96-2.89v-1.04c0-1.69,1.17-2.81,2.93-2.81s2.81,1.12,2.81,2.86v.89h-4.17v.35c0,.84.54,1.39,1.38,1.39.64,0,1.15-.29,1.27-.71h1.51ZM22.36,4.75h2.62c0-.93-.48-1.48-1.29-1.48s-1.33.56-1.33,1.48Z"/><path class="cls-1" d="M28.15,2.16h1.55v1.08h.1c.32-.78,1.01-1.22,1.95-1.22,1.41,0,2.16.84,2.16,2.42v4.18h-1.61v-3.8c0-.95-.38-1.4-1.2-1.4s-1.35.57-1.35,1.46v3.73h-1.6V2.16Z"/><path class="cls-1" d="M38.68.32v1.91h2.41v1.28h-2.38v3.09c0,.49.35.76.96.76.15,0,1.27,0,1.34-.01v1.27c-.06.01-1.34.02-1.47.02-1.76,0-2.43-.56-2.43-2.06v-3.07h-1.68v-1.28h1.68V.32h1.57Z"/><path class="cls-1" d="M45.74,7.45h1.88v1.18h-4.64v-1.18h1.23V3.35h-1.35v-1.18h2.89v1.66h.25c.28-1.28.94-1.83,2.16-1.83.36,0,.69.05.92.13v1.74c-.29-.11-.71-.19-1.08-.19-1.52,0-2.27.69-2.27,2.08v1.69Z"/><path class="cls-1" d="M50.37,6.78c0-1.17.85-1.85,2.44-1.96l1.51-.09v-.52c0-.56-.39-.89-1.05-.89-.56,0-.97.25-1.11.65h-1.56c.12-1.17,1.18-1.93,2.71-1.93,1.66,0,2.59.79,2.59,2.2v4.38h-1.52v-.86h-.14c-.32.61-1,.97-1.84.97-1.22,0-2.04-.79-2.04-1.95ZM54.33,6.22v-.47l-1.24.08c-.75.05-1.13.33-1.13.83s.39.79,1.01.79c.8,0,1.37-.5,1.37-1.22Z"/><path class="cls-1" d="M59.41,7.42c0-.73.58-1.32,1.29-1.32s1.29.6,1.29,1.32-.58,1.32-1.29,1.32-1.29-.6-1.29-1.32Z"/><circle class="cls-1" cx="4.4" cy="4.4" r="4.4"/></g></svg>