<?xml version="1.0" encoding="UTF-8"?>
<svg id="Layer_2" data-name="Layer 2" xmlns="http://www.w3.org/2000/svg" viewBox="0 0 41.57 20">
  <defs>
    <style>
      .cls-1 {
        fill: #f7931e;
      }
    </style>
  </defs>
  <g id="_レイヤー_1" data-name="レイヤー 1">
    <g>
      <path d="M35.57,16.18l4.6-4.58,1.4,1.4-7,7-7-7,1.4-1.43,4.6,4.6v-7.18h2v7.18ZM35.57,4v3h-2v-3h2ZM35.57,0v2h-2V0h2Z"/>
      <g>
        <rect class="cls-1" y="14" width="4" height="2"/>
        <polygon class="cls-1" points="5.35 10.75 2.5 7.93 3.93 6.53 6.75 9.35 5.35 10.75"/>
        <path class="cls-1" d="M6,16v-1c0-1.38.49-2.56,1.46-3.54s2.15-1.46,3.54-1.46,2.56.49,3.54,1.46,1.46,2.15,1.46,3.54v1h-2v-1c0-.83-.29-1.54-.88-2.13-.58-.58-1.29-.88-2.13-.88s-1.54.29-2.13.88c-.58.58-.88,1.29-.88,2.13v1h-2Z"/>
        <rect class="cls-1" x="10" y="4" width="2" height="4"/>
        <polygon class="cls-1" points="16.65 10.75 15.23 9.35 18.08 6.53 19.48 7.93 16.65 10.75"/>
        <rect class="cls-1" x="18" y="14" width="4" height="2"/>
      </g>
    </g>
  </g>
</svg>